<svg version="1.2" baseProfile="tiny-ps" xmlns="http://www.w3.org/2000/svg" viewBox="0 0 13 13" width="13" height="13">
	<title>Playlist</title>
	<style>
		tspan { white-space:pre }
		.shp0 { fill: #60558f } 
	</style>
	<g id="Playlist">
		<g id="5">
			<g id="Options">
				<path id="share 2 copy" class="shp0" d="M10.2 7.9C9.55 7.9 8.96 8.17 8.54 8.61L5.07 6.87C5.09 6.75 5.1 6.63 5.1 6.5C5.1 6.37 5.09 6.25 5.07 6.12L8.54 4.39C8.96 4.83 9.55 5.1 10.2 5.1C11.47 5.1 12.5 4.07 12.5 2.8C12.5 1.53 11.47 0.5 10.2 0.5C8.93 0.5 7.9 1.53 7.9 2.8C7.9 2.93 7.91 3.05 7.93 3.18L4.46 4.91C4.04 4.47 3.45 4.2 2.8 4.2C1.53 4.2 0.5 5.23 0.5 6.5C0.5 7.77 1.53 8.8 2.8 8.8C3.45 8.8 4.04 8.53 4.46 8.09L7.93 9.82C7.91 9.95 7.9 10.07 7.9 10.2C7.9 11.47 8.93 12.5 10.2 12.5C11.47 12.5 12.5 11.47 12.5 10.2C12.5 8.93 11.47 7.9 10.2 7.9Z" />
			</g>
		</g>
	</g>
</svg>